<?xml version="1.0" encoding="UTF-8"?>
<svg width="512" height="512" version="1.1" viewBox="0 0 135.47 135.47" xmlns="http://www.w3.org/2000/svg"><g transform="translate(0 -161.53)"><rect y="161.53" width="135.47" height="135.47" rx="12.214" ry="12.214" fill="#428bff" stroke-width=".2776"/><g fill="#fff" stroke-width=".26458" aria-label="IP"><path d="m24.952 192.97h13.335v73.342h-13.335z" style="font-feature-settings:normal;font-variant-caps:normal;font-variant-ligatures:normal;font-variant-numeric:normal"/><path d="m77.495 192.22q15.981 0 24.448 5.8208 8.5725 5.8208 8.5725 18.203 0 6.4558-2.3283 11.112-2.2225 4.5508-6.5617 7.5142-4.3392 2.8575-10.583 4.2333-6.2442 1.3758-14.288 1.3758h-6.6675v25.823h-13.335v-72.284q4.6567-1.0583 10.266-1.3758 5.715-0.42334 10.478-0.42334zm0.9525 11.536q-5.08 0-8.3608 0.3175v24.977h6.4558q9.6308 0 14.817-2.6458 5.1858-2.7517 5.1858-10.266 0-3.5983-1.3758-6.0325-1.3758-2.4342-3.81-3.81-2.4342-1.3758-5.8208-1.905-3.2808-0.635-7.0908-0.635z" style="font-feature-settings:normal;font-variant-caps:normal;font-variant-ligatures:normal;font-variant-numeric:normal"/></g></g></svg>
